<svg width="96" height="19" viewBox="0 0 96 19" fill="none" xmlns="http://www.w3.org/2000/svg">
<path d="M10.1328 5.29688C9.94531 3.63281 8.42188 2.67188 6.38281 2.67188C4.13281 2.67188 2.65625 3.84375 2.65625 5.46094C2.65625 7.24219 4.64844 7.89844 5.9375 8.22656L7.625 8.69531C9.45312 9.16406 12.4297 10.2188 12.4297 13.3828C12.4297 16.1484 10.2031 18.3047 6.26562 18.3047C2.60938 18.3047 0.335938 16.4062 0.148438 13.5938H2.30469C2.49219 15.4922 4.25 16.3828 6.26562 16.3828C8.60938 16.3828 10.3672 15.1875 10.3672 13.3359C10.3672 11.6953 8.79688 11.0625 7.01562 10.5469L4.92969 9.98438C2.25781 9.21094 0.617188 7.85156 0.617188 5.55469C0.617188 2.69531 3.17188 0.796875 6.45312 0.796875C9.73438 0.796875 12.1016 2.71875 12.1953 5.29688H10.1328ZM15.1953 18V1.03125H17.2109V10.8984H17.4453L22.9531 5.27344H25.4375L20.0703 10.7109L25.8359 18H23.2812L18.5703 12L17.2109 13.2422V18H15.1953ZM32.2578 18.2578C28.7891 18.2578 26.4453 15.6562 26.4453 11.6953C26.4453 7.73438 28.7891 5.10938 32.2578 5.10938C35.7031 5.10938 38.0234 7.73438 38.0234 11.6953C38.0234 15.6562 35.7031 18.2578 32.2578 18.2578ZM32.2578 16.4766C34.8125 16.4766 36.0078 14.2266 36.0078 11.6953C36.0078 9.16406 34.8125 6.89062 32.2578 6.89062C29.6562 6.89062 28.4609 9.16406 28.4609 11.6953C28.4609 14.2266 29.6562 16.4766 32.2578 16.4766ZM45.875 18.2578C42.4062 18.2578 40.0625 15.6562 40.0625 11.6953C40.0625 7.73438 42.4062 5.10938 45.875 5.10938C49.3203 5.10938 51.6406 7.73438 51.6406 11.6953C51.6406 15.6562 49.3203 18.2578 45.875 18.2578ZM45.875 16.4766C48.4297 16.4766 49.625 14.2266 49.625 11.6953C49.625 9.16406 48.4297 6.89062 45.875 6.89062C43.2734 6.89062 42.0781 9.16406 42.0781 11.6953C42.0781 14.2266 43.2734 16.4766 45.875 16.4766ZM56.3047 1.03125V18H54.2891V1.03125H56.3047Z" fill="#79A0EC"/>
<path d="M59.7734 18V1.03125H61.8828V16.125H69.7578V18H59.7734ZM77.6562 18.2578C73.9766 18.2578 71.7031 15.6562 71.7031 11.7422C71.7031 7.82812 74 5.10938 77.4688 5.10938C80.1406 5.10938 82.9531 6.75 82.9531 11.4609V12.3047H73.7188C73.8125 15 75.3828 16.4766 77.6562 16.4766C79.1797 16.4766 80.1406 15.8203 80.6094 15.0234H82.7656C82.1562 16.9453 80.2812 18.2578 77.6562 18.2578ZM73.7422 10.5938H80.9141C80.9141 8.46094 79.5547 6.89062 77.4688 6.89062C75.2656 6.89062 73.8594 8.625 73.7422 10.5938ZM87.5938 10.3594V18H85.5781V5.27344H87.5234V7.26562H87.6875C88.2969 5.97656 89.4688 5.10938 91.4141 5.10938C93.9922 5.10938 95.7031 6.67969 95.7031 9.91406V18H93.6875V10.0547C93.6875 8.08594 92.6094 6.91406 90.8047 6.91406C88.9531 6.91406 87.5938 8.15625 87.5938 10.3594Z" fill="#2464E0"/>
</svg>
