<svg width="167" height="42" viewBox="0 0 167 42" fill="none" xmlns="http://www.w3.org/2000/svg">
<path d="M73.6406 17.8828C73.5 16.5469 72.4219 15.75 70.7109 15.75C68.9297 15.75 67.9453 16.5703 67.9219 17.6953C67.8984 18.9141 69.1875 19.4766 70.6406 19.8047L72.1641 20.1797C75.0703 20.8359 77.25 22.3125 77.25 25.1484C77.25 28.2656 74.8125 30.2344 70.6875 30.2344C66.5859 30.2344 63.9609 28.3359 63.8672 24.7031H67.2891C67.4062 26.4141 68.7656 27.2812 70.6406 27.2812C72.4922 27.2812 73.6875 26.4141 73.6875 25.1484C73.6875 24 72.6328 23.4609 70.7812 22.9922L68.9297 22.5469C66.0703 21.8438 64.3125 20.4141 64.3125 17.9297C64.3125 14.8359 67.0312 12.7969 70.7344 12.7969C74.4844 12.7969 76.9688 14.8828 77.0156 17.8828H73.6406ZM79.4766 30V13.0312H82.9453V22.1484H83.1328L87.2578 17.2734H91.2422L86.5078 22.7812L91.5 30H87.4219L83.9297 24.8203L82.9453 25.9219V30H79.4766ZM98.0391 30.2578C94.1953 30.2578 91.8047 27.6094 91.8047 23.6719C91.8047 19.7344 94.1953 17.1094 98.0391 17.1094C101.883 17.1094 104.297 19.7344 104.297 23.6719C104.297 27.6094 101.883 30.2578 98.0391 30.2578ZM98.0625 27.5625C99.8438 27.5625 100.758 25.8984 100.758 23.6719C100.758 21.4219 99.8438 19.7578 98.0625 19.7578C96.2578 19.7578 95.3203 21.4219 95.3203 23.6719C95.3203 25.8984 96.2578 27.5625 98.0625 27.5625ZM112.195 30.2578C108.352 30.2578 105.961 27.6094 105.961 23.6719C105.961 19.7344 108.352 17.1094 112.195 17.1094C116.039 17.1094 118.453 19.7344 118.453 23.6719C118.453 27.6094 116.039 30.2578 112.195 30.2578ZM112.219 27.5625C114 27.5625 114.914 25.8984 114.914 23.6719C114.914 21.4219 114 19.7578 112.219 19.7578C110.414 19.7578 109.477 21.4219 109.477 23.6719C109.477 25.8984 110.414 27.5625 112.219 27.5625ZM124.102 13.0312V30H120.633V13.0312H124.102Z" fill="#79A0EC"/>
<path d="M126.867 30V13.0312H130.383V27.0938H137.695V30H126.867ZM145.664 30.2578C141.773 30.2578 139.383 27.7266 139.383 23.6953C139.383 19.7578 141.797 17.1094 145.523 17.1094C148.875 17.1094 151.5 19.2188 151.5 23.5547V24.5391H142.805C142.805 26.4609 143.953 27.6562 145.734 27.6562C146.906 27.6562 147.75 27.1406 148.102 26.3672H151.406C150.914 28.7109 148.805 30.2578 145.664 30.2578ZM142.805 22.3594H148.219C148.219 20.8125 147.141 19.7109 145.594 19.7109C144 19.7109 142.863 20.8945 142.805 22.3594ZM157.148 22.6406V30H153.68V17.2734H156.984V19.5H157.125C157.711 18.0234 159.07 17.1094 160.945 17.1094C163.594 17.1094 165.352 18.9141 165.328 21.8906V30H161.883V22.5C161.883 20.9297 161.016 19.9922 159.586 19.9922C158.133 19.9922 157.148 20.9531 157.148 22.6406Z" fill="#2464E0"/>
<mask id="mask0_53_70" style="mask-type:alpha" maskUnits="userSpaceOnUse" x="0" y="0" width="58" height="42">
<g clip-path="url(#clip0_53_70)">
<path d="M2.37638 11.3156L27.8867 0.194368C28.1713 0.0702625 28.4945 0.0679728 28.7808 0.18803L55.4069 11.3493C56.3206 11.7323 56.3417 13.0191 55.4413 13.4319L52.2046 14.9157L28.7826 24.6719C28.4951 24.7915 28.171 24.7881 27.886 24.6623L2.37156 13.3985C1.46533 12.9984 1.46831 11.7115 2.37638 11.3156Z" fill="black"/>
<path d="M53.2466 17.1943L49.412 19.1116C49.2193 19.2079 49.0977 19.4026 49.0977 19.618V37.2917C49.0977 40.6944 54.0695 40.6944 54.0695 37.2917V17.6936C54.0695 17.2709 53.6246 17.0052 53.2466 17.1943Z" fill="black"/>
<path d="M27.9618 28.6735L13.4272 21.8874C12.6732 21.5354 11.8088 22.0858 11.8088 22.9179V32.2513C11.8088 32.6746 12.044 33.0631 12.4191 33.2591L27.9643 41.3878C28.27 41.5477 28.6319 41.5602 28.9478 41.4217L44.0669 34.7922C44.4804 34.6109 44.7474 34.2021 44.7474 33.7507V22.9338C44.7474 22.0976 43.8756 21.5474 43.1209 21.9071L28.9323 28.6696C28.6255 28.8157 28.2695 28.817 27.9618 28.6735Z" fill="black"/>
</g>
</mask>
<g mask="url(#mask0_53_70)">
<rect y="-1.13721" width="58" height="46.1725" fill="url(#paint0_linear_53_70)"/>
</g>
<defs>
<linearGradient id="paint0_linear_53_70" x1="29" y1="-1.13721" x2="29" y2="45.0353" gradientUnits="userSpaceOnUse">
<stop stop-color="#03E7FD"/>
<stop offset="1" stop-color="#0134B6"/>
</linearGradient>
<clipPath id="clip0_53_70">
<rect width="58" height="41.851" fill="white"/>
</clipPath>
</defs>
</svg>
