<svg width="58" height="42" viewBox="0 0 58 42" fill="none" xmlns="http://www.w3.org/2000/svg">
<mask id="mask0_111_85" style="mask-type:alpha" maskUnits="userSpaceOnUse" x="0" y="0" width="58" height="42">
<g clip-path="url(#clip0_111_85)">
<path d="M2.37632 11.3156L27.8867 0.194368C28.1712 0.0702625 28.4944 0.0679728 28.7808 0.18803L55.4069 11.3493C56.3205 11.7323 56.3417 13.0191 55.4412 13.4319L52.2046 14.9157L28.7826 24.6719C28.4951 24.7915 28.171 24.7881 27.886 24.6623L2.3715 13.3985C1.46527 12.9984 1.46825 11.7115 2.37632 11.3156Z" fill="black"/>
<path d="M53.2465 17.1943L49.4119 19.1116C49.2193 19.2079 49.0976 19.4026 49.0976 19.618V37.2917C49.0976 40.6944 54.0694 40.6944 54.0694 37.2917V17.6936C54.0694 17.2709 53.6246 17.0052 53.2465 17.1943Z" fill="black"/>
<path d="M27.9617 28.6735L13.4271 21.8874C12.6731 21.5354 11.8087 22.0858 11.8087 22.9179V32.2513C11.8087 32.6746 12.0439 33.0631 12.419 33.2591L27.9642 41.3878C28.2699 41.5477 28.6317 41.5602 28.9477 41.4217L44.0668 34.7922C44.4803 34.6109 44.7473 34.2021 44.7473 33.7507V22.9338C44.7473 22.0976 43.8755 21.5474 43.1208 21.9071L28.9322 28.6696C28.6254 28.8157 28.2694 28.817 27.9617 28.6735Z" fill="black"/>
</g>
</mask>
<g mask="url(#mask0_111_85)">
<rect y="-1.13721" width="58" height="46.1725" fill="url(#paint0_linear_111_85)"/>
</g>
<defs>
<linearGradient id="paint0_linear_111_85" x1="29" y1="-1.13721" x2="29" y2="45.0353" gradientUnits="userSpaceOnUse">
<stop stop-color="#03E7FD"/>
<stop offset="1" stop-color="#0134B6"/>
</linearGradient>
<clipPath id="clip0_111_85">
<rect width="58" height="41.851" fill="white"/>
</clipPath>
</defs>
</svg>
